<svg xmlns="http://www.w3.org/2000/svg" width="1968" height="710" viewBox="0 0 1968 528">

  <path fill="#053696"
        d="M430 132h61c5 8 5 8 5 10h2c4 6.625 4 6.625 4 10h2c4 6.625 4 6.625 4 10h2q1.424 2.49 2.844 4.984a335 335 0 0 0 2.312 3.97C518 175.786 518 175.786 518 178h2q2.226 3.87 4.438 7.75c.42.73.841 1.46 1.275 2.21l1.22 2.15 1.127 1.967c.959 1.961 1.49 3.793 1.94 5.923h2l1.723 3.148c4.013 7.269 8.03 14.304 13.062 20.934C548 224 548 224 548 227h2q1.476 2.621 2.938 5.25l1.652 2.953c1.176 2.333 1.931 4.25 2.41 6.797h2l.848 1.836c2.618 5.472 5.57 10.338 9.117 15.25 2.549 3.65 4.924 7.391 7.285 11.164l1.286 2.042C584 282.668 584 282.668 584 286h2c4 6.625 4 6.625 4 10h2c1.332 1.906 1.332 1.906 2.813 4.5a261 261 0 0 0 7.304 11.906C603 314 603 314 603 316h2a319 319 0 0 0 3.563-7.312c3.015-6.02 6.602-11.718 10.094-17.468a1361 1361 0 0 0 4.245-7.075c4.748-7.953 9.527-15.876 14.473-23.707a238 238 0 0 0 9.113-15.7c2.45-4.437 5.17-8.702 7.875-12.988 1.738-2.697 1.738-2.697 2.637-5.75h2c.115-.568.23-1.136.35-1.721.718-2.518 1.749-4.469 3.056-6.736l1.491-2.599 1.603-2.756 1.646-2.853c6.162-10.648 12.483-21.177 19.042-31.585a252 252 0 0 0 9.253-15.902c4.717-8.619 9.844-17.056 15.465-25.114 1.267-1.856 1.267-1.856 2.094-4.734h63v309h-69l-1-178-8 14c-3.687 5.313-3.687 5.313-5.418 7.715-1.973 2.85-3.625 5.807-5.262 8.86-2.123 3.901-4.41 7.708-6.672 11.53-1.66 2.917-3.174 5.88-4.648 8.895h-2l-.371 1.734c-.657 2.366-1.566 4.338-2.692 6.516l-1.097 2.14L669 326h-2l-1 5h-2l-.281 2.18c-.839 3.29-2.196 5.233-4.219 7.945-2.013 2.714-3.427 4.657-4.5 7.875h-2c-.235.824-.47 1.647-.71 2.496-1.54 4.183-3.616 7.763-5.915 11.567l-1.349 2.262c-3.327 5.565-6.725 11.085-10.14 16.597-5.757 9.363-5.757 9.363-10.886 19.078h-2l-.437 2.438C621 406 621 406 620 407c-4.875.46-9.75.614-14.645.735a171 171 0 0 0-4.928.225c-5.362.318-10.2.393-15.427-.96-3.614-3.54-5.499-7.195-7-12v-3h-2l-.812-1.512c-3.03-5.55-6.285-10.928-9.618-16.3-4.085-6.622-8.053-13.315-12.046-19.993-4.027-6.726-8.104-13.414-12.301-20.035C540 332 540 332 540 330h-2a652 652 0 0 1-2-3.875l-1.125-2.18C534 322 534 322 534 320h-2l-.883-1.617c-2.79-5.073-5.702-10.057-8.691-15.016C517 294.36 517 294.36 517 292h-2l-1.031-1.95c-4.061-7.57-8.444-14.697-12.969-22.05l-1 173h-70z"/>
  <path fill="#06C9ED"
        d="M1292 132h62c5.117 5.686 10.02 11.16 14.723 17.129q2.58 3.252 5.21 6.46c6.439 7.858 12.733 15.798 18.841 23.915l1.546 2.047 1.352 1.802c1.314 1.703 1.314 1.703 2.995 3.238C1400 188 1400 188 1400 190h2a134 134 0 0 1 4.938 6.188 323 323 0 0 0 13.708 16.723C1424 216.788 1424 216.788 1424 219l3 1a113 113 0 0 1 4.813 6q1.479 1.928 2.964 3.852l1.586 2.055c2.772 3.543 5.642 7.004 8.512 10.468l3.574 4.324 1.787 2.162c7.472 9.06 14.852 18.19 22.069 27.457 2.384 3.052 4.82 6.029 7.382 8.932C1482 288 1482 288 1482 290l3 1a140 140 0 0 1 5.438 6.75l2.87 3.734 1.276 1.68c1.775 2.302 3.6 4.566 5.416 6.836l1-178h74v309h-62c-12.273-14.505-12.273-14.505-16.375-19.812-4.615-5.942-9.34-11.788-14.123-17.595-2.52-3.078-4.934-6.169-7.197-9.44-2.118-3.277-2.118-3.277-5.305-5.153a769 769 0 0 1-3-5c-3.04-4.167-6.12-8.14-9.812-11.75-2.272-2.336-3.22-4.167-4.188-7.25h-2a123 123 0 0 1-4.812-6q-1.477-1.92-2.958-3.836l-1.58-2.05c-3.37-4.317-6.854-8.543-10.321-12.782C1424 331.357 1424 331.357 1424 329l-3-1c-1.36-1.452-1.36-1.452-2.75-3.324l-1.578-2.099-1.672-2.264-3.5-4.653-1.773-2.367A694 694 0 0 0 1402 303.25l-1.309-1.694c-1.957-2.502-3.957-4.822-6.207-7.068-2.687-2.691-4.936-5.52-7.234-8.55l-1.291-1.693a687 687 0 0 1-6.502-8.69l-1.222-1.652a1110 1110 0 0 1-3.325-4.54c-1.866-2.55-1.866-2.55-4.91-4.363v-3l-3-1-1 180h-74z"/>
  <path fill="#053695"
        d="m943.852 126.797 2.834-.017q2.967-.015 5.935-.02c2.947-.01 5.893-.04 8.84-.073 23.51-.13 46.339 3.468 68.664 10.813l2.621.862c4.704 1.604 9.1 3.46 13.507 5.754 2.19 1.108 4.437 1.94 6.747 2.759 4.998 1.934 8.912 4.699 13 8.125-.632 5.053-2.135 9.296-4 14h-2l-.328 2.563c-.733 3.747-1.95 6.916-3.422 10.437a284 284 0 0 0-5.875 15.438c-1.787 5.096-3.81 9.813-6.375 14.562a89 89 0 0 1-9.668-4.39c-24.427-12.698-48.844-19.77-76.487-19.85-2.012-.01-4.023-.041-6.034-.072-15.58-.062-30.66 2.594-42.374 13.66-7.17 8.241-5.835 18.391-5.437 28.652h2c1.297 1.426 1.297 1.426 2.75 3.313 2.716 3.304 5.235 5.062 9.25 6.687v2l1.882.546c4.146 1.221 8.26 2.468 12.317 3.962 11.757 4.278 23.677 7.2 35.864 9.93 27.153 6.098 53.605 12.64 77.937 26.562v2l2.133.684c3.466 1.591 5.995 3.795 8.742 6.378l1.598 1.493c4.353 4.14 8.189 8.434 11.527 13.445l1.613 2.406c10.892 17.945 11.18 42.536 6.7 62.531C1073.754 390.016 1064.2 404.92 1050 417h-2v2c-2.555 1.727-2.555 1.727-5.875 3.625l-3.305 1.914C1036 426 1036 426 1034 426v2c-47.158 25.544-108.88 22.107-159 8-7.219-2.159-14.157-4.81-21.086-7.762-4.276-1.817-8.594-3.527-12.914-5.238v-2l-1.656-.32c-2.867-.832-5.232-2.113-7.844-3.555l-2.844-1.555A60 60 0 0 1 822 411c.463-6.67 3.022-11.952 5.875-17.937 2.668-5.67 5.281-11.284 7.41-17.18 1.26-3.317 2.808-6.498 4.34-9.695 2.399-5.005 2.399-5.005 4.375-10.188h2v-2c5.845 1.538 11.127 4.456 16 8v2h4v2l1.695.445c5.132 1.436 9.894 3.222 14.742 5.438 7.28 3.208 14.668 5.158 22.438 6.867l1.999.447c4.367.976 8.742 1.905 13.126 2.803l2.446.501c22.897 4.413 51.136 4.403 71.741-7.313 5.005-3.893 8.844-8.081 10.813-14.188.872-7.347.566-13.964-4-20-2.893-3.025-6.131-5.363-10-7v-2l-1.836-.516c-4.377-1.266-8.602-2.62-12.789-4.421-4.063-1.665-8.103-2.823-12.367-3.864l-2.086-.513A2569 2569 0 0 0 955 321c-49.783-12.096-49.783-12.096-68-19l-1.96-.74c-6.892-2.65-13.493-5.856-20.04-9.26v-2l-1.723-.297c-6.28-1.94-11.907-7.988-16.277-12.703l-1.645-1.734c-15.855-17.272-18.291-39.811-17.539-62.432 1.42-21.93 12.338-42.082 28.648-56.555 4.854-4.042 10.233-8.068 16.536-9.279v-2c21.199-11.722 46.675-18.086 70.852-18.203"/>
  <path fill="#06C9ED"
        d="m1780.363 126.797 2.643-.017q2.76-.015 5.519-.02c2.742-.01 5.484-.04 8.227-.073 29.847-.179 58.99 6.94 85.248 21.313v2l2.262.855c13.157 5.5 30.62 19.081 36.738 32.145a230 230 0 0 1-10.25 9.75c-6.082 5.505-11.861 11.297-17.61 17.147-4.01 4.06-8.114 7.919-12.46 11.618-1.85 1.579-1.85 1.579-3.93 3.985-1.75 1.5-1.75 1.5-3.543 1.41-3.189-1.315-4.923-3.46-7.27-5.972-5.563-5.806-11.69-11.315-18.937-14.938v-2l-2.5-.75c-2.594-.926-4.676-1.838-7.062-3.125-13.108-6.717-27.43-8.52-41.938-8.5l-2.003.002c-15.606.059-28.762 2.603-42.872 9.201C1748 202 1748 202 1746 202v2c-5.75 3-5.75 3-8 3v2l-4 1v2c-1.469 1.41-1.469 1.41-3.5 3.063-6.77 5.774-12.44 11.988-16.5 19.937h-2l-.25 2c-.653 2.61-1.394 4.401-2.625 6.75-11.335 22.137-10.884 50.827-4.125 74.25a89.6 89.6 0 0 0 5 12l1.113 2.3c4.754 9.199 11.074 17.718 19.125 24.25 1.762 1.45 1.762 1.45 4.2 4.075 3.468 3.214 7.373 5.23 11.562 7.375v2l1.836.516c4.38 1.267 8.563 2.62 12.726 4.484 17.853 7.185 39.851 6.948 58.438 3l2.46-.437c5.587-1.068 10.463-3.029 15.54-5.563l2.59-1.277c7.395-3.83 13.883-8.572 20.41-13.723l1.95-1.512c3.152-2.517 5.647-5.253 8.05-8.488 5.12.36 7.82 3.2 11.313 6.625q1.744 1.66 3.492 3.32l1.682 1.615c3.073 2.926 6.294 5.678 9.513 8.44l1.6 1.376c6.1 5.249 12.21 10.482 18.4 15.624 2.438 2.063 2.438 2.063 4 4-.436 6.843-8.925 13.257-13.812 17.616C1881.084 427 1881.084 427 1872 427v2c-26.243 11.019-51.38 16.226-79.812 16.25l-2.494.003c-12.8-.01-25.125-.673-37.694-3.253l-2.114-.39c-13.515-2.496-26.14-7.582-38.886-12.61v-2l-2.875-.625c-21.427-6.305-41.356-27.879-54.125-45.375l-2.027-2.758c-6.84-9.547-12.37-19.433-16.973-30.242l-1.312-3.062c-13.162-33.562-13.92-74.818-2.688-108.938l.969-3.133c1.927-6.076 4.249-11.83 6.98-17.59 1.14-2.359 1.14-2.359 2.051-5.277h2l.813-2.625c1.158-3.293 2.57-6.286 4.187-9.375h2v-3h2l2-5h2l.758-1.719c3.875-7.116 10.742-12.868 16.43-18.594l1.474-1.488c8.687-8.649 8.687-8.649 13.338-10.199l1-2a155 155 0 0 1 7-4l2.13-1.163c17.717-9.617 34.891-16.773 54.682-21.024l2.353-.507 2.292-.474 2-.415c6.964-1.142 13.854-1.583 20.906-1.62"/>
  <path fill="#053596"
        d="M73 132q15.399-.07 30.797-.104 7.15-.014 14.3-.047 6.896-.032 13.79-.039 2.636-.004 5.271-.021c2.454-.015 4.909-.017 7.363-.016l2.217-.022c5.034.02 5.034.02 7.262 2.249a158 158 0 0 1 2.313 6.5 108 108 0 0 0 6.57 15.281c1.315 2.612 2.32 5.255 3.293 8.008 1.45 3.891 3.166 7.675 4.836 11.477C172 178 172 178 172 182h2l.918 2.64c4.38 12.452 9.482 24.5 15.062 36.462 1.497 3.302 2.02 5.176 2.02 8.898h2l.918 2.71c2.85 8.253 2.85 8.253 6.52 16.165 2.2 4.189 3.884 8.497 5.5 12.938 2.2 6.033 4.676 11.835 7.425 17.644 4.97 10.757 9.465 21.75 13.532 32.879 1.031 2.681 1.031 2.681 2.554 5.031 1.95 3.312 3.244 6.785 4.551 10.383l.79 2.139A392 392 0 0 1 241 345h2l.363-2.195c.642-2.827 1.57-5.073 2.825-7.68 2.078-4.443 3.962-8.934 5.75-13.5 2.306-5.857 4.833-11.571 7.503-17.273C265.45 291.433 270.78 278.252 276 265h2l.36-2.16c.67-2.97 1.669-5.49 2.89-8.277 2.887-6.758 5.338-13.624 7.75-20.563h2l.309-2.012c.874-3.78 2.277-7.22 3.753-10.8l.854-2.1q1.037-2.546 2.084-5.088h2l.352-2.59c.672-3.537 1.717-6.62 3.023-9.972l1.273-3.317C306 195 306 195 307.528 192.492c1.686-2.855 2.654-5.648 3.66-8.804l1.042-3.239L313 178h2l.38-2.188c.611-2.771 1.464-5.177 2.546-7.796l1.166-2.836 1.22-2.93 1.186-2.883c3.848-9.316 7.987-18.337 12.502-27.367h73c-.866 4.33-2.092 8.078-3.75 12.125l-.819 2.022c-1.896 4.645-3.93 9.21-6.036 13.763-2.875 6.368-5.53 12.832-8.221 19.279q-1.936 4.635-3.877 9.268L381.562 195l-1.324 3.167-1.234 2.958-1.1 2.633A90 90 0 0 0 376 209h-2l-.687 3.813c-1.046 4.701-2.82 8.755-4.887 13.09-1.633 3.547-3.067 7.149-4.488 10.785-1.504 3.828-3 7.615-4.938 11.25-2.022 3.834-3.454 7.872-4.937 11.937-2 5.477-4.207 10.67-6.915 15.844-1.58 3.138-2.841 6.37-4.117 9.64-2.524 6.465-5.078 12.917-8.281 19.079-1.471 2.995-2.34 5.284-2.75 8.562h-2l-.355 2.145c-.688 3.047-1.721 5.675-2.957 8.543-1.557 3.654-3.102 7.306-4.563 11L320 340l-.758 1.896c-3.364 8.39-6.812 16.604-11.078 24.588-1.167 2.524-1.74 4.778-2.164 7.516h-2l-.371 2.137c-.663 3.018-1.61 5.782-2.692 8.676l-1.097 2.957L299 390h-2l-.187 2.313c-.933 4.23-2.568 7.704-4.415 11.605-1.95 4.299-3.565 8.706-5.187 13.137-1.174 2.854-2.595 5.324-4.211 7.945-.696 2.191-.696 2.191-1 4h-2l-.437 3.313C279 436 279 436 278 439h-2v2h-75l-8-21-4-9a3453 3453 0 0 1-5.062-11.562l-1.315-2.999C176 381.248 176 381.248 176 377h-2l-1.355-3.734c-4.24-11.627-8.75-23.062-13.797-34.364C156 332.512 156 332.512 156 329h-2l-.918-2.422a589 589 0 0 0-7.629-19.066 579 579 0 0 1-3.406-8.43l-1.054-2.66q-1.03-2.607-2.05-5.217c-1.82-4.598-3.792-9.036-6.048-13.435-3.314-6.552-5.81-13.527-8.437-20.375-2.78-7.24-5.734-14.304-9.056-21.317-1.92-4.217-3.547-8.525-5.172-12.863-1.621-4.237-3.408-8.397-5.214-12.559-.977-2.555-1.567-4.963-2.016-7.656h-2l-.586-1.898-.789-2.477-.773-2.46c-.75-2.33-.75-2.33-2.852-4.165a107 107 0 0 1-2.125-5.937l-1.07-3.215C92 180 92 180 92 177h-2a958 958 0 0 1-2-5.312l-1.125-2.989C86 166 86 166 86 163h-2l-1.172-3.437L81.25 155l-.766-2.254c-1.552-4.463-3.32-8.597-5.626-12.726-1.112-2.618-1.423-5.218-1.858-8.02"/>
  <path fill="#063695" d="M1113 287h124v58h-124z"/>

  <!-- Центр исходного блока: x=620, y=460 (прямоугольник 330..910 по x, 400..520 по y) -->
  <g transform="translate(620, 460) scale(2) translate(-620, -460)">
    <rect x="430" y="420" width="580" height="120" rx="60" fill="#06C9ED" />
    <text x="720" y="510" font-family="Arial, sans-serif" font-size="76" font-weight="bold" fill="white" text-anchor="middle">ON-PREMISE</text>
  </g>
</svg>
