<svg width="390" height="270" viewBox="0 0 390 270" fill="none" xmlns="http://www.w3.org/2000/svg">
<path d="M15 135.4H75V149.6H15V135.4Z" fill="#D9BE94" stroke="#B08F5E" stroke-width="1.4" stroke-linejoin="round"/>
<path d="M76 135.4H136V149.6H76V135.4Z" fill="#D9BE94" stroke="#B08F5E" stroke-width="1.4" stroke-linejoin="round"/>
<path d="M137 135.4H197V149.6H137V135.4Z" fill="#D9BE94" stroke="#B08F5E" stroke-width="1.4" stroke-linejoin="round"/>
<path d="M198 135.4H258V149.6H198V135.4Z" fill="#D9BE94" stroke="#B08F5E" stroke-width="1.4" stroke-linejoin="round"/>
<path d="M259 135.4H319V149.6H259V135.4Z" fill="#D9BE94" stroke="#B08F5E" stroke-width="1.4" stroke-linejoin="round"/>
<path d="M320 135.4H375V149.6H320V135.4Z" fill="#D9BE94" stroke="#B08F5E" stroke-width="1.4" stroke-linejoin="round"/>
<path d="M15 150.4H45V164.6H15V150.4Z" fill="#D9BE94" stroke="#B08F5E" stroke-width="1.4" stroke-linejoin="round"/>
<path d="M46 150.4H106V164.6H46V150.4Z" fill="#D9BE94" stroke="#B08F5E" stroke-width="1.4" stroke-linejoin="round"/>
<path d="M107 150.4H167V164.6H107V150.4Z" fill="#D9BE94" stroke="#B08F5E" stroke-width="1.4" stroke-linejoin="round"/>
<path d="M168 150.4H228V164.6H168V150.4Z" fill="#D9BE94" stroke="#B08F5E" stroke-width="1.4" stroke-linejoin="round"/>
<path d="M229 150.4H289V164.6H229V150.4Z" fill="#D9BE94" stroke="#B08F5E" stroke-width="1.4" stroke-linejoin="round"/>
<path d="M290 150.4H350V164.6H290V150.4Z" fill="#D9BE94" stroke="#B08F5E" stroke-width="1.4" stroke-linejoin="round"/>
<path d="M351 150.4H375V164.6H351V150.4Z" fill="#D9BE94" stroke="#B08F5E" stroke-width="1.4" stroke-linejoin="round"/>
<path d="M15 165.4H75V179.6H15V165.4Z" fill="#D9BE94" stroke="#B08F5E" stroke-width="1.4" stroke-linejoin="round"/>
<path d="M76 165.4H136V179.6H76V165.4Z" fill="#D9BE94" stroke="#B08F5E" stroke-width="1.4" stroke-linejoin="round"/>
<path d="M137 165.4H197V179.6H137V165.4Z" fill="#D9BE94" stroke="#B08F5E" stroke-width="1.4" stroke-linejoin="round"/>
<path d="M198 165.4H258V179.6H198V165.4Z" fill="#D9BE94" stroke="#B08F5E" stroke-width="1.4" stroke-linejoin="round"/>
<path d="M259 165.4H319V179.6H259V165.4Z" fill="#D9BE94" stroke="#B08F5E" stroke-width="1.4" stroke-linejoin="round"/>
<path d="M320 165.4H375V179.6H320V165.4Z" fill="#D9BE94" stroke="#B08F5E" stroke-width="1.4" stroke-linejoin="round"/>
<path d="M15 180.4H45V194.6H15V180.4Z" fill="#D9BE94" stroke="#B08F5E" stroke-width="1.4" stroke-linejoin="round"/>
<path d="M46 180.4H106V194.6H46V180.4Z" fill="#D9BE94" stroke="#B08F5E" stroke-width="1.4" stroke-linejoin="round"/>
<path d="M107 180.4H167V194.6H107V180.4Z" fill="#D9BE94" stroke="#B08F5E" stroke-width="1.4" stroke-linejoin="round"/>
<path d="M168 180.4H228V194.6H168V180.4Z" fill="#D9BE94" stroke="#B08F5E" stroke-width="1.4" stroke-linejoin="round"/>
<path d="M229 180.4H289V194.6H229V180.4Z" fill="#D9BE94" stroke="#B08F5E" stroke-width="1.4" stroke-linejoin="round"/>
<path d="M290 180.4H350V194.6H290V180.4Z" fill="#D9BE94" stroke="#B08F5E" stroke-width="1.4" stroke-linejoin="round"/>
<path d="M351 180.4H375V194.6H351V180.4Z" fill="#D9BE94" stroke="#B08F5E" stroke-width="1.4" stroke-linejoin="round"/>
<path d="M15 195.4H75V209.6H15V195.4Z" fill="#D9BE94" stroke="#B08F5E" stroke-width="1.4" stroke-linejoin="round"/>
<path d="M76 195.4H136V209.6H76V195.4Z" fill="#D9BE94" stroke="#B08F5E" stroke-width="1.4" stroke-linejoin="round"/>
<path d="M137 195.4H197V209.6H137V195.4Z" fill="#D9BE94" stroke="#B08F5E" stroke-width="1.4" stroke-linejoin="round"/>
<path d="M198 195.4H258V209.6H198V195.4Z" fill="#D9BE94" stroke="#B08F5E" stroke-width="1.4" stroke-linejoin="round"/>
<path d="M259 195.4H319V209.6H259V195.4Z" fill="#D9BE94" stroke="#B08F5E" stroke-width="1.4" stroke-linejoin="round"/>
<path d="M320 195.4H375V209.6H320V195.4Z" fill="#D9BE94" stroke="#B08F5E" stroke-width="1.4" stroke-linejoin="round"/>
<path d="M15 210.4H45V224.6H15V210.4Z" fill="#D9BE94" stroke="#B08F5E" stroke-width="1.4" stroke-linejoin="round"/>
<path d="M46 210.4H106V224.6H46V210.4Z" fill="#D9BE94" stroke="#B08F5E" stroke-width="1.4" stroke-linejoin="round"/>
<path d="M107 210.4H167V224.6H107V210.4Z" fill="#D9BE94" stroke="#B08F5E" stroke-width="1.4" stroke-linejoin="round"/>
<path d="M168 210.4H228V224.6H168V210.4Z" fill="#D9BE94" stroke="#B08F5E" stroke-width="1.4" stroke-linejoin="round"/>
<path d="M229 210.4H289V224.6H229V210.4Z" fill="#D9BE94" stroke="#B08F5E" stroke-width="1.4" stroke-linejoin="round"/>
<path d="M290 210.4H350V224.6H290V210.4Z" fill="#D9BE94" stroke="#B08F5E" stroke-width="1.4" stroke-linejoin="round"/>
<path d="M351 210.4H375V224.6H351V210.4Z" fill="#D9BE94" stroke="#B08F5E" stroke-width="1.4" stroke-linejoin="round"/>
<path d="M15 225.4H75V239.6H15V225.4Z" fill="#D9BE94" stroke="#B08F5E" stroke-width="1.4" stroke-linejoin="round"/>
<path d="M76 225.4H136V239.6H76V225.4Z" fill="#D9BE94" stroke="#B08F5E" stroke-width="1.4" stroke-linejoin="round"/>
<path d="M137 225.4H197V239.6H137V225.4Z" fill="#D9BE94" stroke="#B08F5E" stroke-width="1.4" stroke-linejoin="round"/>
<path d="M198 225.4H258V239.6H198V225.4Z" fill="#D9BE94" stroke="#B08F5E" stroke-width="1.4" stroke-linejoin="round"/>
<path d="M259 225.4H319V239.6H259V225.4Z" fill="#D9BE94" stroke="#B08F5E" stroke-width="1.4" stroke-linejoin="round"/>
<path d="M320 225.4H375V239.6H320V225.4Z" fill="#D9BE94" stroke="#B08F5E" stroke-width="1.4" stroke-linejoin="round"/>
<path d="M15 240.4H45V254.6H15V240.4Z" fill="#D9BE94" stroke="#B08F5E" stroke-width="1.4" stroke-linejoin="round"/>
<path d="M46 240.4H106V254.6H46V240.4Z" fill="#D9BE94" stroke="#B08F5E" stroke-width="1.4" stroke-linejoin="round"/>
<path d="M107 240.4H167V254.6H107V240.4Z" fill="#D9BE94" stroke="#B08F5E" stroke-width="1.4" stroke-linejoin="round"/>
<path d="M168 240.4H228V254.6H168V240.4Z" fill="#D9BE94" stroke="#B08F5E" stroke-width="1.4" stroke-linejoin="round"/>
<path d="M229 240.4H289V254.6H229V240.4Z" fill="#D9BE94" stroke="#B08F5E" stroke-width="1.4" stroke-linejoin="round"/>
<path d="M290 240.4H350V254.6H290V240.4Z" fill="#D9BE94" stroke="#B08F5E" stroke-width="1.4" stroke-linejoin="round"/>
<path d="M351 240.4H375V254.6H351V240.4Z" fill="#D9BE94" stroke="#B08F5E" stroke-width="1.4" stroke-linejoin="round"/>
<path d="M15.3999 15H29.5999V75H15.3999V15Z" fill="#D9BE94" stroke="#B08F5E" stroke-width="1.4" stroke-linejoin="round"/>
<path d="M15.3999 76H29.5999V135H15.3999V76Z" fill="#D9BE94" stroke="#B08F5E" stroke-width="1.4" stroke-linejoin="round"/>
<path d="M30.3999 15H44.5999V45H30.3999V15Z" fill="#D9BE94" stroke="#B08F5E" stroke-width="1.4" stroke-linejoin="round"/>
<path d="M30.3999 46H44.5999V106H30.3999V46Z" fill="#D9BE94" stroke="#B08F5E" stroke-width="1.4" stroke-linejoin="round"/>
<path d="M30.3999 107H44.5999V135H30.3999V107Z" fill="#D9BE94" stroke="#B08F5E" stroke-width="1.4" stroke-linejoin="round"/>
<path d="M45.3999 15H59.5999V75H45.3999V15Z" fill="#D9BE94" stroke="#B08F5E" stroke-width="1.4" stroke-linejoin="round"/>
<path d="M45.3999 76H59.5999V135H45.3999V76Z" fill="#D9BE94" stroke="#B08F5E" stroke-width="1.4" stroke-linejoin="round"/>
<path d="M60.3999 15H74.5999V45H60.3999V15Z" fill="#D9BE94" stroke="#B08F5E" stroke-width="1.4" stroke-linejoin="round"/>
<path d="M60.3999 46H74.5999V106H60.3999V46Z" fill="#D9BE94" stroke="#B08F5E" stroke-width="1.4" stroke-linejoin="round"/>
<path d="M60.3999 107H74.5999V135H60.3999V107Z" fill="#D9BE94" stroke="#B08F5E" stroke-width="1.4" stroke-linejoin="round"/>
<path d="M75.3999 15H89.5999V75H75.3999V15Z" fill="#D9BE94" stroke="#B08F5E" stroke-width="1.4" stroke-linejoin="round"/>
<path d="M75.3999 76H89.5999V135H75.3999V76Z" fill="#D9BE94" stroke="#B08F5E" stroke-width="1.4" stroke-linejoin="round"/>
<path d="M90.3999 15H104.6V45H90.3999V15Z" fill="#D9BE94" stroke="#B08F5E" stroke-width="1.4" stroke-linejoin="round"/>
<path d="M90.3999 46H104.6V106H90.3999V46Z" fill="#D9BE94" stroke="#B08F5E" stroke-width="1.4" stroke-linejoin="round"/>
<path d="M90.3999 107H104.6V135H90.3999V107Z" fill="#D9BE94" stroke="#B08F5E" stroke-width="1.4" stroke-linejoin="round"/>
<path d="M105.4 15H119.6V75H105.4V15Z" fill="#D9BE94" stroke="#B08F5E" stroke-width="1.4" stroke-linejoin="round"/>
<path d="M105.4 76H119.6V135H105.4V76Z" fill="#D9BE94" stroke="#B08F5E" stroke-width="1.4" stroke-linejoin="round"/>
<path d="M120.4 15H134.6V45H120.4V15Z" fill="#D9BE94" stroke="#B08F5E" stroke-width="1.4" stroke-linejoin="round"/>
<path d="M120.4 46H134.6V106H120.4V46Z" fill="#D9BE94" stroke="#B08F5E" stroke-width="1.4" stroke-linejoin="round"/>
<path d="M120.4 107H134.6V135H120.4V107Z" fill="#D9BE94" stroke="#B08F5E" stroke-width="1.4" stroke-linejoin="round"/>
<path d="M15 15H135V135H375V255H15V15Z" stroke="#2B2317" stroke-width="4" stroke-linejoin="round"/>
</svg>
