<svg width="390" height="270" viewBox="0 0 390 270" fill="none" xmlns="http://www.w3.org/2000/svg">
<path d="M15 15.4H75V29.6H15V15.4Z" fill="#D9BE94" stroke="#B08F5E" stroke-width="1.4" stroke-linejoin="round"/>
<path d="M76 15.4H135V29.6H76V15.4Z" fill="#D9BE94" stroke="#B08F5E" stroke-width="1.4" stroke-linejoin="round"/>
<path d="M15 30.4H45V44.6H15V30.4Z" fill="#D9BE94" stroke="#B08F5E" stroke-width="1.4" stroke-linejoin="round"/>
<path d="M46 30.4H106V44.6H46V30.4Z" fill="#D9BE94" stroke="#B08F5E" stroke-width="1.4" stroke-linejoin="round"/>
<path d="M107 30.4H135V44.6H107V30.4Z" fill="#D9BE94" stroke="#B08F5E" stroke-width="1.4" stroke-linejoin="round"/>
<path d="M15 45.4H75V59.6H15V45.4Z" fill="#D9BE94" stroke="#B08F5E" stroke-width="1.4" stroke-linejoin="round"/>
<path d="M76 45.4H135V59.6H76V45.4Z" fill="#D9BE94" stroke="#B08F5E" stroke-width="1.4" stroke-linejoin="round"/>
<path d="M15 60.4H45V74.6H15V60.4Z" fill="#D9BE94" stroke="#B08F5E" stroke-width="1.4" stroke-linejoin="round"/>
<path d="M46 60.4H106V74.6H46V60.4Z" fill="#D9BE94" stroke="#B08F5E" stroke-width="1.4" stroke-linejoin="round"/>
<path d="M107 60.4H135V74.6H107V60.4Z" fill="#D9BE94" stroke="#B08F5E" stroke-width="1.4" stroke-linejoin="round"/>
<path d="M15 75.4H75V89.6H15V75.4Z" fill="#D9BE94" stroke="#B08F5E" stroke-width="1.4" stroke-linejoin="round"/>
<path d="M76 75.4H135V89.6H76V75.4Z" fill="#D9BE94" stroke="#B08F5E" stroke-width="1.4" stroke-linejoin="round"/>
<path d="M15 90.4H45V104.6H15V90.4Z" fill="#D9BE94" stroke="#B08F5E" stroke-width="1.4" stroke-linejoin="round"/>
<path d="M46 90.4H106V104.6H46V90.4Z" fill="#D9BE94" stroke="#B08F5E" stroke-width="1.4" stroke-linejoin="round"/>
<path d="M107 90.4H135V104.6H107V90.4Z" fill="#D9BE94" stroke="#B08F5E" stroke-width="1.4" stroke-linejoin="round"/>
<path d="M15 105.4H75V119.6H15V105.4Z" fill="#D9BE94" stroke="#B08F5E" stroke-width="1.4" stroke-linejoin="round"/>
<path d="M76 105.4H135V119.6H76V105.4Z" fill="#D9BE94" stroke="#B08F5E" stroke-width="1.4" stroke-linejoin="round"/>
<path d="M15 120.4H45V134.6H15V120.4Z" fill="#D9BE94" stroke="#B08F5E" stroke-width="1.4" stroke-linejoin="round"/>
<path d="M46 120.4H106V134.6H46V120.4Z" fill="#D9BE94" stroke="#B08F5E" stroke-width="1.4" stroke-linejoin="round"/>
<path d="M107 120.4H135V134.6H107V120.4Z" fill="#D9BE94" stroke="#B08F5E" stroke-width="1.4" stroke-linejoin="round"/>
<path d="M15 135.4H75V149.6H15V135.4Z" fill="#D9BE94" stroke="#B08F5E" stroke-width="1.4" stroke-linejoin="round"/>
<path d="M76 135.4H135V149.6H76V135.4Z" fill="#D9BE94" stroke="#B08F5E" stroke-width="1.4" stroke-linejoin="round"/>
<path d="M15 150.4H45V164.6H15V150.4Z" fill="#D9BE94" stroke="#B08F5E" stroke-width="1.4" stroke-linejoin="round"/>
<path d="M46 150.4H106V164.6H46V150.4Z" fill="#D9BE94" stroke="#B08F5E" stroke-width="1.4" stroke-linejoin="round"/>
<path d="M107 150.4H135V164.6H107V150.4Z" fill="#D9BE94" stroke="#B08F5E" stroke-width="1.4" stroke-linejoin="round"/>
<path d="M15 165.4H75V179.6H15V165.4Z" fill="#D9BE94" stroke="#B08F5E" stroke-width="1.4" stroke-linejoin="round"/>
<path d="M76 165.4H135V179.6H76V165.4Z" fill="#D9BE94" stroke="#B08F5E" stroke-width="1.4" stroke-linejoin="round"/>
<path d="M15 180.4H45V194.6H15V180.4Z" fill="#D9BE94" stroke="#B08F5E" stroke-width="1.4" stroke-linejoin="round"/>
<path d="M46 180.4H106V194.6H46V180.4Z" fill="#D9BE94" stroke="#B08F5E" stroke-width="1.4" stroke-linejoin="round"/>
<path d="M107 180.4H135V194.6H107V180.4Z" fill="#D9BE94" stroke="#B08F5E" stroke-width="1.4" stroke-linejoin="round"/>
<path d="M15 195.4H75V209.6H15V195.4Z" fill="#D9BE94" stroke="#B08F5E" stroke-width="1.4" stroke-linejoin="round"/>
<path d="M76 195.4H135V209.6H76V195.4Z" fill="#D9BE94" stroke="#B08F5E" stroke-width="1.4" stroke-linejoin="round"/>
<path d="M15 210.4H45V224.6H15V210.4Z" fill="#D9BE94" stroke="#B08F5E" stroke-width="1.4" stroke-linejoin="round"/>
<path d="M46 210.4H106V224.6H46V210.4Z" fill="#D9BE94" stroke="#B08F5E" stroke-width="1.4" stroke-linejoin="round"/>
<path d="M107 210.4H135V224.6H107V210.4Z" fill="#D9BE94" stroke="#B08F5E" stroke-width="1.4" stroke-linejoin="round"/>
<path d="M15 225.4H75V239.6H15V225.4Z" fill="#D9BE94" stroke="#B08F5E" stroke-width="1.4" stroke-linejoin="round"/>
<path d="M76 225.4H135V239.6H76V225.4Z" fill="#D9BE94" stroke="#B08F5E" stroke-width="1.4" stroke-linejoin="round"/>
<path d="M15 240.4H45V254.6H15V240.4Z" fill="#D9BE94" stroke="#B08F5E" stroke-width="1.4" stroke-linejoin="round"/>
<path d="M46 240.4H106V254.6H46V240.4Z" fill="#D9BE94" stroke="#B08F5E" stroke-width="1.4" stroke-linejoin="round"/>
<path d="M107 240.4H135V254.6H107V240.4Z" fill="#D9BE94" stroke="#B08F5E" stroke-width="1.4" stroke-linejoin="round"/>
<path d="M135.4 135H149.6V195H135.4V135Z" fill="#D9BE94" stroke="#B08F5E" stroke-width="1.4" stroke-linejoin="round"/>
<path d="M135.4 196H149.6V255H135.4V196Z" fill="#D9BE94" stroke="#B08F5E" stroke-width="1.4" stroke-linejoin="round"/>
<path d="M150.4 135H164.6V165H150.4V135Z" fill="#D9BE94" stroke="#B08F5E" stroke-width="1.4" stroke-linejoin="round"/>
<path d="M150.4 166H164.6V226H150.4V166Z" fill="#D9BE94" stroke="#B08F5E" stroke-width="1.4" stroke-linejoin="round"/>
<path d="M150.4 227H164.6V255H150.4V227Z" fill="#D9BE94" stroke="#B08F5E" stroke-width="1.4" stroke-linejoin="round"/>
<path d="M165.4 135H179.6V195H165.4V135Z" fill="#D9BE94" stroke="#B08F5E" stroke-width="1.4" stroke-linejoin="round"/>
<path d="M165.4 196H179.6V255H165.4V196Z" fill="#D9BE94" stroke="#B08F5E" stroke-width="1.4" stroke-linejoin="round"/>
<path d="M180.4 135H194.6V165H180.4V135Z" fill="#D9BE94" stroke="#B08F5E" stroke-width="1.4" stroke-linejoin="round"/>
<path d="M180.4 166H194.6V226H180.4V166Z" fill="#D9BE94" stroke="#B08F5E" stroke-width="1.4" stroke-linejoin="round"/>
<path d="M180.4 227H194.6V255H180.4V227Z" fill="#D9BE94" stroke="#B08F5E" stroke-width="1.4" stroke-linejoin="round"/>
<path d="M195.4 135H209.6V195H195.4V135Z" fill="#D9BE94" stroke="#B08F5E" stroke-width="1.4" stroke-linejoin="round"/>
<path d="M195.4 196H209.6V255H195.4V196Z" fill="#D9BE94" stroke="#B08F5E" stroke-width="1.4" stroke-linejoin="round"/>
<path d="M210.4 135H224.6V165H210.4V135Z" fill="#D9BE94" stroke="#B08F5E" stroke-width="1.4" stroke-linejoin="round"/>
<path d="M210.4 166H224.6V226H210.4V166Z" fill="#D9BE94" stroke="#B08F5E" stroke-width="1.4" stroke-linejoin="round"/>
<path d="M210.4 227H224.6V255H210.4V227Z" fill="#D9BE94" stroke="#B08F5E" stroke-width="1.4" stroke-linejoin="round"/>
<path d="M225.4 135H239.6V195H225.4V135Z" fill="#D9BE94" stroke="#B08F5E" stroke-width="1.4" stroke-linejoin="round"/>
<path d="M225.4 196H239.6V255H225.4V196Z" fill="#D9BE94" stroke="#B08F5E" stroke-width="1.4" stroke-linejoin="round"/>
<path d="M240.4 135H254.6V165H240.4V135Z" fill="#D9BE94" stroke="#B08F5E" stroke-width="1.4" stroke-linejoin="round"/>
<path d="M240.4 166H254.6V226H240.4V166Z" fill="#D9BE94" stroke="#B08F5E" stroke-width="1.4" stroke-linejoin="round"/>
<path d="M240.4 227H254.6V255H240.4V227Z" fill="#D9BE94" stroke="#B08F5E" stroke-width="1.4" stroke-linejoin="round"/>
<path d="M255.4 135H269.6V195H255.4V135Z" fill="#D9BE94" stroke="#B08F5E" stroke-width="1.4" stroke-linejoin="round"/>
<path d="M255.4 196H269.6V255H255.4V196Z" fill="#D9BE94" stroke="#B08F5E" stroke-width="1.4" stroke-linejoin="round"/>
<path d="M270.4 135H284.6V165H270.4V135Z" fill="#D9BE94" stroke="#B08F5E" stroke-width="1.4" stroke-linejoin="round"/>
<path d="M270.4 166H284.6V226H270.4V166Z" fill="#D9BE94" stroke="#B08F5E" stroke-width="1.4" stroke-linejoin="round"/>
<path d="M270.4 227H284.6V255H270.4V227Z" fill="#D9BE94" stroke="#B08F5E" stroke-width="1.4" stroke-linejoin="round"/>
<path d="M285.4 135H299.6V195H285.4V135Z" fill="#D9BE94" stroke="#B08F5E" stroke-width="1.4" stroke-linejoin="round"/>
<path d="M285.4 196H299.6V255H285.4V196Z" fill="#D9BE94" stroke="#B08F5E" stroke-width="1.4" stroke-linejoin="round"/>
<path d="M300.4 135H314.6V165H300.4V135Z" fill="#D9BE94" stroke="#B08F5E" stroke-width="1.4" stroke-linejoin="round"/>
<path d="M300.4 166H314.6V226H300.4V166Z" fill="#D9BE94" stroke="#B08F5E" stroke-width="1.4" stroke-linejoin="round"/>
<path d="M300.4 227H314.6V255H300.4V227Z" fill="#D9BE94" stroke="#B08F5E" stroke-width="1.4" stroke-linejoin="round"/>
<path d="M315.4 135H329.6V195H315.4V135Z" fill="#D9BE94" stroke="#B08F5E" stroke-width="1.4" stroke-linejoin="round"/>
<path d="M315.4 196H329.6V255H315.4V196Z" fill="#D9BE94" stroke="#B08F5E" stroke-width="1.4" stroke-linejoin="round"/>
<path d="M330.4 135H344.6V165H330.4V135Z" fill="#D9BE94" stroke="#B08F5E" stroke-width="1.4" stroke-linejoin="round"/>
<path d="M330.4 166H344.6V226H330.4V166Z" fill="#D9BE94" stroke="#B08F5E" stroke-width="1.4" stroke-linejoin="round"/>
<path d="M330.4 227H344.6V255H330.4V227Z" fill="#D9BE94" stroke="#B08F5E" stroke-width="1.4" stroke-linejoin="round"/>
<path d="M345.4 135H359.6V195H345.4V135Z" fill="#D9BE94" stroke="#B08F5E" stroke-width="1.4" stroke-linejoin="round"/>
<path d="M345.4 196H359.6V255H345.4V196Z" fill="#D9BE94" stroke="#B08F5E" stroke-width="1.4" stroke-linejoin="round"/>
<path d="M360.4 135H374.6V165H360.4V135Z" fill="#D9BE94" stroke="#B08F5E" stroke-width="1.4" stroke-linejoin="round"/>
<path d="M360.4 166H374.6V226H360.4V166Z" fill="#D9BE94" stroke="#B08F5E" stroke-width="1.4" stroke-linejoin="round"/>
<path d="M360.4 227H374.6V255H360.4V227Z" fill="#D9BE94" stroke="#B08F5E" stroke-width="1.4" stroke-linejoin="round"/>
<path d="M15 15H135V135H375V255H15V15Z" stroke="#2B2317" stroke-width="4" stroke-linejoin="round"/>
</svg>
