<svg width="390" height="270" viewBox="0 0 390 270" fill="none" xmlns="http://www.w3.org/2000/svg">
<path d="M15 105.4H75V119.6H15V105.4Z" fill="#D9BE94" stroke="#B08F5E" stroke-width="1.4" stroke-linejoin="round"/>
<path d="M76 105.4H135V119.6H76V105.4Z" fill="#D9BE94" stroke="#B08F5E" stroke-width="1.4" stroke-linejoin="round"/>
<path d="M15 120.4H45V134.6H15V120.4Z" fill="#D9BE94" stroke="#B08F5E" stroke-width="1.4" stroke-linejoin="round"/>
<path d="M46 120.4H106V134.6H46V120.4Z" fill="#D9BE94" stroke="#B08F5E" stroke-width="1.4" stroke-linejoin="round"/>
<path d="M107 120.4H135V134.6H107V120.4Z" fill="#D9BE94" stroke="#B08F5E" stroke-width="1.4" stroke-linejoin="round"/>
<path d="M15 135.4H75V149.6H15V135.4Z" fill="#D9BE94" stroke="#B08F5E" stroke-width="1.4" stroke-linejoin="round"/>
<path d="M76 135.4H135V149.6H76V135.4Z" fill="#D9BE94" stroke="#B08F5E" stroke-width="1.4" stroke-linejoin="round"/>
<path d="M15 150.4H45V164.6H15V150.4Z" fill="#D9BE94" stroke="#B08F5E" stroke-width="1.4" stroke-linejoin="round"/>
<path d="M46 150.4H106V164.6H46V150.4Z" fill="#D9BE94" stroke="#B08F5E" stroke-width="1.4" stroke-linejoin="round"/>
<path d="M107 150.4H135V164.6H107V150.4Z" fill="#D9BE94" stroke="#B08F5E" stroke-width="1.4" stroke-linejoin="round"/>
<path d="M15 165.4H75V179.6H15V165.4Z" fill="#D9BE94" stroke="#B08F5E" stroke-width="1.4" stroke-linejoin="round"/>
<path d="M76 165.4H135V179.6H76V165.4Z" fill="#D9BE94" stroke="#B08F5E" stroke-width="1.4" stroke-linejoin="round"/>
<path d="M15 180.4H45V194.6H15V180.4Z" fill="#D9BE94" stroke="#B08F5E" stroke-width="1.4" stroke-linejoin="round"/>
<path d="M46 180.4H106V194.6H46V180.4Z" fill="#D9BE94" stroke="#B08F5E" stroke-width="1.4" stroke-linejoin="round"/>
<path d="M107 180.4H135V194.6H107V180.4Z" fill="#D9BE94" stroke="#B08F5E" stroke-width="1.4" stroke-linejoin="round"/>
<path d="M15 195.4H75V209.6H15V195.4Z" fill="#D9BE94" stroke="#B08F5E" stroke-width="1.4" stroke-linejoin="round"/>
<path d="M76 195.4H135V209.6H76V195.4Z" fill="#D9BE94" stroke="#B08F5E" stroke-width="1.4" stroke-linejoin="round"/>
<path d="M15 210.4H45V224.6H15V210.4Z" fill="#D9BE94" stroke="#B08F5E" stroke-width="1.4" stroke-linejoin="round"/>
<path d="M46 210.4H106V224.6H46V210.4Z" fill="#D9BE94" stroke="#B08F5E" stroke-width="1.4" stroke-linejoin="round"/>
<path d="M107 210.4H135V224.6H107V210.4Z" fill="#D9BE94" stroke="#B08F5E" stroke-width="1.4" stroke-linejoin="round"/>
<path d="M15 225.4H75V239.6H15V225.4Z" fill="#D9BE94" stroke="#B08F5E" stroke-width="1.4" stroke-linejoin="round"/>
<path d="M76 225.4H135V239.6H76V225.4Z" fill="#D9BE94" stroke="#B08F5E" stroke-width="1.4" stroke-linejoin="round"/>
<path d="M15 240.4H45V254.6H15V240.4Z" fill="#D9BE94" stroke="#B08F5E" stroke-width="1.4" stroke-linejoin="round"/>
<path d="M46 240.4H106V254.6H46V240.4Z" fill="#D9BE94" stroke="#B08F5E" stroke-width="1.4" stroke-linejoin="round"/>
<path d="M107 240.4H135V254.6H107V240.4Z" fill="#D9BE94" stroke="#B08F5E" stroke-width="1.4" stroke-linejoin="round"/>
<path d="M255 105.4H315V119.6H255V105.4Z" fill="#D9BE94" stroke="#B08F5E" stroke-width="1.4" stroke-linejoin="round"/>
<path d="M316 105.4H375V119.6H316V105.4Z" fill="#D9BE94" stroke="#B08F5E" stroke-width="1.4" stroke-linejoin="round"/>
<path d="M255 120.4H285V134.6H255V120.4Z" fill="#D9BE94" stroke="#B08F5E" stroke-width="1.4" stroke-linejoin="round"/>
<path d="M286 120.4H346V134.6H286V120.4Z" fill="#D9BE94" stroke="#B08F5E" stroke-width="1.4" stroke-linejoin="round"/>
<path d="M347 120.4H375V134.6H347V120.4Z" fill="#D9BE94" stroke="#B08F5E" stroke-width="1.4" stroke-linejoin="round"/>
<path d="M255 135.4H315V149.6H255V135.4Z" fill="#D9BE94" stroke="#B08F5E" stroke-width="1.4" stroke-linejoin="round"/>
<path d="M316 135.4H375V149.6H316V135.4Z" fill="#D9BE94" stroke="#B08F5E" stroke-width="1.4" stroke-linejoin="round"/>
<path d="M255 150.4H285V164.6H255V150.4Z" fill="#D9BE94" stroke="#B08F5E" stroke-width="1.4" stroke-linejoin="round"/>
<path d="M286 150.4H346V164.6H286V150.4Z" fill="#D9BE94" stroke="#B08F5E" stroke-width="1.4" stroke-linejoin="round"/>
<path d="M347 150.4H375V164.6H347V150.4Z" fill="#D9BE94" stroke="#B08F5E" stroke-width="1.4" stroke-linejoin="round"/>
<path d="M255 165.4H315V179.6H255V165.4Z" fill="#D9BE94" stroke="#B08F5E" stroke-width="1.4" stroke-linejoin="round"/>
<path d="M316 165.4H375V179.6H316V165.4Z" fill="#D9BE94" stroke="#B08F5E" stroke-width="1.4" stroke-linejoin="round"/>
<path d="M255 180.4H285V194.6H255V180.4Z" fill="#D9BE94" stroke="#B08F5E" stroke-width="1.4" stroke-linejoin="round"/>
<path d="M286 180.4H346V194.6H286V180.4Z" fill="#D9BE94" stroke="#B08F5E" stroke-width="1.4" stroke-linejoin="round"/>
<path d="M347 180.4H375V194.6H347V180.4Z" fill="#D9BE94" stroke="#B08F5E" stroke-width="1.4" stroke-linejoin="round"/>
<path d="M255 195.4H315V209.6H255V195.4Z" fill="#D9BE94" stroke="#B08F5E" stroke-width="1.4" stroke-linejoin="round"/>
<path d="M316 195.4H375V209.6H316V195.4Z" fill="#D9BE94" stroke="#B08F5E" stroke-width="1.4" stroke-linejoin="round"/>
<path d="M255 210.4H285V224.6H255V210.4Z" fill="#D9BE94" stroke="#B08F5E" stroke-width="1.4" stroke-linejoin="round"/>
<path d="M286 210.4H346V224.6H286V210.4Z" fill="#D9BE94" stroke="#B08F5E" stroke-width="1.4" stroke-linejoin="round"/>
<path d="M347 210.4H375V224.6H347V210.4Z" fill="#D9BE94" stroke="#B08F5E" stroke-width="1.4" stroke-linejoin="round"/>
<path d="M255 225.4H315V239.6H255V225.4Z" fill="#D9BE94" stroke="#B08F5E" stroke-width="1.4" stroke-linejoin="round"/>
<path d="M316 225.4H375V239.6H316V225.4Z" fill="#D9BE94" stroke="#B08F5E" stroke-width="1.4" stroke-linejoin="round"/>
<path d="M255 240.4H285V254.6H255V240.4Z" fill="#D9BE94" stroke="#B08F5E" stroke-width="1.4" stroke-linejoin="round"/>
<path d="M286 240.4H346V254.6H286V240.4Z" fill="#D9BE94" stroke="#B08F5E" stroke-width="1.4" stroke-linejoin="round"/>
<path d="M347 240.4H375V254.6H347V240.4Z" fill="#D9BE94" stroke="#B08F5E" stroke-width="1.4" stroke-linejoin="round"/>
<path d="M15 15.4H75V29.6H15V15.4Z" fill="#D9BE94" stroke="#B08F5E" stroke-width="1.4" stroke-linejoin="round"/>
<path d="M76 15.4H136V29.6H76V15.4Z" fill="#D9BE94" stroke="#B08F5E" stroke-width="1.4" stroke-linejoin="round"/>
<path d="M137 15.4H197V29.6H137V15.4Z" fill="#D9BE94" stroke="#B08F5E" stroke-width="1.4" stroke-linejoin="round"/>
<path d="M198 15.4H258V29.6H198V15.4Z" fill="#D9BE94" stroke="#B08F5E" stroke-width="1.4" stroke-linejoin="round"/>
<path d="M259 15.4H319V29.6H259V15.4Z" fill="#D9BE94" stroke="#B08F5E" stroke-width="1.4" stroke-linejoin="round"/>
<path d="M320 15.4H375V29.6H320V15.4Z" fill="#D9BE94" stroke="#B08F5E" stroke-width="1.4" stroke-linejoin="round"/>
<path d="M15 30.4H45V44.6H15V30.4Z" fill="#D9BE94" stroke="#B08F5E" stroke-width="1.4" stroke-linejoin="round"/>
<path d="M46 30.4H106V44.6H46V30.4Z" fill="#D9BE94" stroke="#B08F5E" stroke-width="1.4" stroke-linejoin="round"/>
<path d="M107 30.4H167V44.6H107V30.4Z" fill="#D9BE94" stroke="#B08F5E" stroke-width="1.4" stroke-linejoin="round"/>
<path d="M168 30.4H228V44.6H168V30.4Z" fill="#D9BE94" stroke="#B08F5E" stroke-width="1.4" stroke-linejoin="round"/>
<path d="M229 30.4H289V44.6H229V30.4Z" fill="#D9BE94" stroke="#B08F5E" stroke-width="1.4" stroke-linejoin="round"/>
<path d="M290 30.4H350V44.6H290V30.4Z" fill="#D9BE94" stroke="#B08F5E" stroke-width="1.4" stroke-linejoin="round"/>
<path d="M351 30.4H375V44.6H351V30.4Z" fill="#D9BE94" stroke="#B08F5E" stroke-width="1.4" stroke-linejoin="round"/>
<path d="M15 45.4H75V59.6H15V45.4Z" fill="#D9BE94" stroke="#B08F5E" stroke-width="1.4" stroke-linejoin="round"/>
<path d="M76 45.4H136V59.6H76V45.4Z" fill="#D9BE94" stroke="#B08F5E" stroke-width="1.4" stroke-linejoin="round"/>
<path d="M137 45.4H197V59.6H137V45.4Z" fill="#D9BE94" stroke="#B08F5E" stroke-width="1.4" stroke-linejoin="round"/>
<path d="M198 45.4H258V59.6H198V45.4Z" fill="#D9BE94" stroke="#B08F5E" stroke-width="1.4" stroke-linejoin="round"/>
<path d="M259 45.4H319V59.6H259V45.4Z" fill="#D9BE94" stroke="#B08F5E" stroke-width="1.4" stroke-linejoin="round"/>
<path d="M320 45.4H375V59.6H320V45.4Z" fill="#D9BE94" stroke="#B08F5E" stroke-width="1.4" stroke-linejoin="round"/>
<path d="M15 60.4H45V74.6H15V60.4Z" fill="#D9BE94" stroke="#B08F5E" stroke-width="1.4" stroke-linejoin="round"/>
<path d="M46 60.4H106V74.6H46V60.4Z" fill="#D9BE94" stroke="#B08F5E" stroke-width="1.4" stroke-linejoin="round"/>
<path d="M107 60.4H167V74.6H107V60.4Z" fill="#D9BE94" stroke="#B08F5E" stroke-width="1.4" stroke-linejoin="round"/>
<path d="M168 60.4H228V74.6H168V60.4Z" fill="#D9BE94" stroke="#B08F5E" stroke-width="1.4" stroke-linejoin="round"/>
<path d="M229 60.4H289V74.6H229V60.4Z" fill="#D9BE94" stroke="#B08F5E" stroke-width="1.4" stroke-linejoin="round"/>
<path d="M290 60.4H350V74.6H290V60.4Z" fill="#D9BE94" stroke="#B08F5E" stroke-width="1.4" stroke-linejoin="round"/>
<path d="M351 60.4H375V74.6H351V60.4Z" fill="#D9BE94" stroke="#B08F5E" stroke-width="1.4" stroke-linejoin="round"/>
<path d="M15 75.4H75V89.6H15V75.4Z" fill="#D9BE94" stroke="#B08F5E" stroke-width="1.4" stroke-linejoin="round"/>
<path d="M76 75.4H136V89.6H76V75.4Z" fill="#D9BE94" stroke="#B08F5E" stroke-width="1.4" stroke-linejoin="round"/>
<path d="M137 75.4H197V89.6H137V75.4Z" fill="#D9BE94" stroke="#B08F5E" stroke-width="1.4" stroke-linejoin="round"/>
<path d="M198 75.4H258V89.6H198V75.4Z" fill="#D9BE94" stroke="#B08F5E" stroke-width="1.4" stroke-linejoin="round"/>
<path d="M259 75.4H319V89.6H259V75.4Z" fill="#D9BE94" stroke="#B08F5E" stroke-width="1.4" stroke-linejoin="round"/>
<path d="M320 75.4H375V89.6H320V75.4Z" fill="#D9BE94" stroke="#B08F5E" stroke-width="1.4" stroke-linejoin="round"/>
<path d="M15 90.4H45V104.6H15V90.4Z" fill="#D9BE94" stroke="#B08F5E" stroke-width="1.4" stroke-linejoin="round"/>
<path d="M46 90.4H106V104.6H46V90.4Z" fill="#D9BE94" stroke="#B08F5E" stroke-width="1.4" stroke-linejoin="round"/>
<path d="M107 90.4H167V104.6H107V90.4Z" fill="#D9BE94" stroke="#B08F5E" stroke-width="1.4" stroke-linejoin="round"/>
<path d="M168 90.4H228V104.6H168V90.4Z" fill="#D9BE94" stroke="#B08F5E" stroke-width="1.4" stroke-linejoin="round"/>
<path d="M229 90.4H289V104.6H229V90.4Z" fill="#D9BE94" stroke="#B08F5E" stroke-width="1.4" stroke-linejoin="round"/>
<path d="M290 90.4H350V104.6H290V90.4Z" fill="#D9BE94" stroke="#B08F5E" stroke-width="1.4" stroke-linejoin="round"/>
<path d="M351 90.4H375V104.6H351V90.4Z" fill="#D9BE94" stroke="#B08F5E" stroke-width="1.4" stroke-linejoin="round"/>
<path d="M15 15H375V255H255V105H135V255H15V15Z" stroke="#2B2317" stroke-width="4" stroke-linejoin="round"/>
</svg>
