<svg width="390" height="270" viewBox="0 0 390 270" fill="none" xmlns="http://www.w3.org/2000/svg">
<path d="M15.3999 105H29.5999V165H15.3999V105Z" fill="#D9BE94" stroke="#B08F5E" stroke-width="1.4" stroke-linejoin="round"/>
<path d="M15.3999 166H29.5999V226H15.3999V166Z" fill="#D9BE94" stroke="#B08F5E" stroke-width="1.4" stroke-linejoin="round"/>
<path d="M15.3999 227H29.5999V255H15.3999V227Z" fill="#D9BE94" stroke="#B08F5E" stroke-width="1.4" stroke-linejoin="round"/>
<path d="M30.3999 105H44.5999V135H30.3999V105Z" fill="#D9BE94" stroke="#B08F5E" stroke-width="1.4" stroke-linejoin="round"/>
<path d="M30.3999 136H44.5999V196H30.3999V136Z" fill="#D9BE94" stroke="#B08F5E" stroke-width="1.4" stroke-linejoin="round"/>
<path d="M30.3999 197H44.5999V255H30.3999V197Z" fill="#D9BE94" stroke="#B08F5E" stroke-width="1.4" stroke-linejoin="round"/>
<path d="M45.3999 105H59.5999V165H45.3999V105Z" fill="#D9BE94" stroke="#B08F5E" stroke-width="1.4" stroke-linejoin="round"/>
<path d="M45.3999 166H59.5999V226H45.3999V166Z" fill="#D9BE94" stroke="#B08F5E" stroke-width="1.4" stroke-linejoin="round"/>
<path d="M45.3999 227H59.5999V255H45.3999V227Z" fill="#D9BE94" stroke="#B08F5E" stroke-width="1.4" stroke-linejoin="round"/>
<path d="M60.3999 105H74.5999V135H60.3999V105Z" fill="#D9BE94" stroke="#B08F5E" stroke-width="1.4" stroke-linejoin="round"/>
<path d="M60.3999 136H74.5999V196H60.3999V136Z" fill="#D9BE94" stroke="#B08F5E" stroke-width="1.4" stroke-linejoin="round"/>
<path d="M60.3999 197H74.5999V255H60.3999V197Z" fill="#D9BE94" stroke="#B08F5E" stroke-width="1.4" stroke-linejoin="round"/>
<path d="M75.3999 105H89.5999V165H75.3999V105Z" fill="#D9BE94" stroke="#B08F5E" stroke-width="1.4" stroke-linejoin="round"/>
<path d="M75.3999 166H89.5999V226H75.3999V166Z" fill="#D9BE94" stroke="#B08F5E" stroke-width="1.4" stroke-linejoin="round"/>
<path d="M75.3999 227H89.5999V255H75.3999V227Z" fill="#D9BE94" stroke="#B08F5E" stroke-width="1.4" stroke-linejoin="round"/>
<path d="M90.3999 105H104.6V135H90.3999V105Z" fill="#D9BE94" stroke="#B08F5E" stroke-width="1.4" stroke-linejoin="round"/>
<path d="M90.3999 136H104.6V196H90.3999V136Z" fill="#D9BE94" stroke="#B08F5E" stroke-width="1.4" stroke-linejoin="round"/>
<path d="M90.3999 197H104.6V255H90.3999V197Z" fill="#D9BE94" stroke="#B08F5E" stroke-width="1.4" stroke-linejoin="round"/>
<path d="M105.4 105H119.6V165H105.4V105Z" fill="#D9BE94" stroke="#B08F5E" stroke-width="1.4" stroke-linejoin="round"/>
<path d="M105.4 166H119.6V226H105.4V166Z" fill="#D9BE94" stroke="#B08F5E" stroke-width="1.4" stroke-linejoin="round"/>
<path d="M105.4 227H119.6V255H105.4V227Z" fill="#D9BE94" stroke="#B08F5E" stroke-width="1.4" stroke-linejoin="round"/>
<path d="M120.4 105H134.6V135H120.4V105Z" fill="#D9BE94" stroke="#B08F5E" stroke-width="1.4" stroke-linejoin="round"/>
<path d="M120.4 136H134.6V196H120.4V136Z" fill="#D9BE94" stroke="#B08F5E" stroke-width="1.4" stroke-linejoin="round"/>
<path d="M120.4 197H134.6V255H120.4V197Z" fill="#D9BE94" stroke="#B08F5E" stroke-width="1.4" stroke-linejoin="round"/>
<path d="M255.4 105H269.6V165H255.4V105Z" fill="#D9BE94" stroke="#B08F5E" stroke-width="1.4" stroke-linejoin="round"/>
<path d="M255.4 166H269.6V226H255.4V166Z" fill="#D9BE94" stroke="#B08F5E" stroke-width="1.4" stroke-linejoin="round"/>
<path d="M255.4 227H269.6V255H255.4V227Z" fill="#D9BE94" stroke="#B08F5E" stroke-width="1.4" stroke-linejoin="round"/>
<path d="M270.4 105H284.6V135H270.4V105Z" fill="#D9BE94" stroke="#B08F5E" stroke-width="1.4" stroke-linejoin="round"/>
<path d="M270.4 136H284.6V196H270.4V136Z" fill="#D9BE94" stroke="#B08F5E" stroke-width="1.4" stroke-linejoin="round"/>
<path d="M270.4 197H284.6V255H270.4V197Z" fill="#D9BE94" stroke="#B08F5E" stroke-width="1.4" stroke-linejoin="round"/>
<path d="M285.4 105H299.6V165H285.4V105Z" fill="#D9BE94" stroke="#B08F5E" stroke-width="1.4" stroke-linejoin="round"/>
<path d="M285.4 166H299.6V226H285.4V166Z" fill="#D9BE94" stroke="#B08F5E" stroke-width="1.4" stroke-linejoin="round"/>
<path d="M285.4 227H299.6V255H285.4V227Z" fill="#D9BE94" stroke="#B08F5E" stroke-width="1.4" stroke-linejoin="round"/>
<path d="M300.4 105H314.6V135H300.4V105Z" fill="#D9BE94" stroke="#B08F5E" stroke-width="1.4" stroke-linejoin="round"/>
<path d="M300.4 136H314.6V196H300.4V136Z" fill="#D9BE94" stroke="#B08F5E" stroke-width="1.4" stroke-linejoin="round"/>
<path d="M300.4 197H314.6V255H300.4V197Z" fill="#D9BE94" stroke="#B08F5E" stroke-width="1.4" stroke-linejoin="round"/>
<path d="M315.4 105H329.6V165H315.4V105Z" fill="#D9BE94" stroke="#B08F5E" stroke-width="1.4" stroke-linejoin="round"/>
<path d="M315.4 166H329.6V226H315.4V166Z" fill="#D9BE94" stroke="#B08F5E" stroke-width="1.4" stroke-linejoin="round"/>
<path d="M315.4 227H329.6V255H315.4V227Z" fill="#D9BE94" stroke="#B08F5E" stroke-width="1.4" stroke-linejoin="round"/>
<path d="M330.4 105H344.6V135H330.4V105Z" fill="#D9BE94" stroke="#B08F5E" stroke-width="1.4" stroke-linejoin="round"/>
<path d="M330.4 136H344.6V196H330.4V136Z" fill="#D9BE94" stroke="#B08F5E" stroke-width="1.4" stroke-linejoin="round"/>
<path d="M330.4 197H344.6V255H330.4V197Z" fill="#D9BE94" stroke="#B08F5E" stroke-width="1.4" stroke-linejoin="round"/>
<path d="M345.4 105H359.6V165H345.4V105Z" fill="#D9BE94" stroke="#B08F5E" stroke-width="1.4" stroke-linejoin="round"/>
<path d="M345.4 166H359.6V226H345.4V166Z" fill="#D9BE94" stroke="#B08F5E" stroke-width="1.4" stroke-linejoin="round"/>
<path d="M345.4 227H359.6V255H345.4V227Z" fill="#D9BE94" stroke="#B08F5E" stroke-width="1.4" stroke-linejoin="round"/>
<path d="M360.4 105H374.6V135H360.4V105Z" fill="#D9BE94" stroke="#B08F5E" stroke-width="1.4" stroke-linejoin="round"/>
<path d="M360.4 136H374.6V196H360.4V136Z" fill="#D9BE94" stroke="#B08F5E" stroke-width="1.4" stroke-linejoin="round"/>
<path d="M360.4 197H374.6V255H360.4V197Z" fill="#D9BE94" stroke="#B08F5E" stroke-width="1.4" stroke-linejoin="round"/>
<path d="M15 15.4H75V29.6H15V15.4Z" fill="#D9BE94" stroke="#B08F5E" stroke-width="1.4" stroke-linejoin="round"/>
<path d="M76 15.4H136V29.6H76V15.4Z" fill="#D9BE94" stroke="#B08F5E" stroke-width="1.4" stroke-linejoin="round"/>
<path d="M137 15.4H197V29.6H137V15.4Z" fill="#D9BE94" stroke="#B08F5E" stroke-width="1.4" stroke-linejoin="round"/>
<path d="M198 15.4H258V29.6H198V15.4Z" fill="#D9BE94" stroke="#B08F5E" stroke-width="1.4" stroke-linejoin="round"/>
<path d="M259 15.4H319V29.6H259V15.4Z" fill="#D9BE94" stroke="#B08F5E" stroke-width="1.4" stroke-linejoin="round"/>
<path d="M320 15.4H375V29.6H320V15.4Z" fill="#D9BE94" stroke="#B08F5E" stroke-width="1.4" stroke-linejoin="round"/>
<path d="M15 30.4H45V44.6H15V30.4Z" fill="#D9BE94" stroke="#B08F5E" stroke-width="1.4" stroke-linejoin="round"/>
<path d="M46 30.4H106V44.6H46V30.4Z" fill="#D9BE94" stroke="#B08F5E" stroke-width="1.4" stroke-linejoin="round"/>
<path d="M107 30.4H167V44.6H107V30.4Z" fill="#D9BE94" stroke="#B08F5E" stroke-width="1.4" stroke-linejoin="round"/>
<path d="M168 30.4H228V44.6H168V30.4Z" fill="#D9BE94" stroke="#B08F5E" stroke-width="1.4" stroke-linejoin="round"/>
<path d="M229 30.4H289V44.6H229V30.4Z" fill="#D9BE94" stroke="#B08F5E" stroke-width="1.4" stroke-linejoin="round"/>
<path d="M290 30.4H350V44.6H290V30.4Z" fill="#D9BE94" stroke="#B08F5E" stroke-width="1.4" stroke-linejoin="round"/>
<path d="M351 30.4H375V44.6H351V30.4Z" fill="#D9BE94" stroke="#B08F5E" stroke-width="1.4" stroke-linejoin="round"/>
<path d="M15 45.4H75V59.6H15V45.4Z" fill="#D9BE94" stroke="#B08F5E" stroke-width="1.4" stroke-linejoin="round"/>
<path d="M76 45.4H136V59.6H76V45.4Z" fill="#D9BE94" stroke="#B08F5E" stroke-width="1.4" stroke-linejoin="round"/>
<path d="M137 45.4H197V59.6H137V45.4Z" fill="#D9BE94" stroke="#B08F5E" stroke-width="1.4" stroke-linejoin="round"/>
<path d="M198 45.4H258V59.6H198V45.4Z" fill="#D9BE94" stroke="#B08F5E" stroke-width="1.4" stroke-linejoin="round"/>
<path d="M259 45.4H319V59.6H259V45.4Z" fill="#D9BE94" stroke="#B08F5E" stroke-width="1.4" stroke-linejoin="round"/>
<path d="M320 45.4H375V59.6H320V45.4Z" fill="#D9BE94" stroke="#B08F5E" stroke-width="1.4" stroke-linejoin="round"/>
<path d="M15 60.4H45V74.6H15V60.4Z" fill="#D9BE94" stroke="#B08F5E" stroke-width="1.4" stroke-linejoin="round"/>
<path d="M46 60.4H106V74.6H46V60.4Z" fill="#D9BE94" stroke="#B08F5E" stroke-width="1.4" stroke-linejoin="round"/>
<path d="M107 60.4H167V74.6H107V60.4Z" fill="#D9BE94" stroke="#B08F5E" stroke-width="1.4" stroke-linejoin="round"/>
<path d="M168 60.4H228V74.6H168V60.4Z" fill="#D9BE94" stroke="#B08F5E" stroke-width="1.4" stroke-linejoin="round"/>
<path d="M229 60.4H289V74.6H229V60.4Z" fill="#D9BE94" stroke="#B08F5E" stroke-width="1.4" stroke-linejoin="round"/>
<path d="M290 60.4H350V74.6H290V60.4Z" fill="#D9BE94" stroke="#B08F5E" stroke-width="1.4" stroke-linejoin="round"/>
<path d="M351 60.4H375V74.6H351V60.4Z" fill="#D9BE94" stroke="#B08F5E" stroke-width="1.4" stroke-linejoin="round"/>
<path d="M15 75.4H75V89.6H15V75.4Z" fill="#D9BE94" stroke="#B08F5E" stroke-width="1.4" stroke-linejoin="round"/>
<path d="M76 75.4H136V89.6H76V75.4Z" fill="#D9BE94" stroke="#B08F5E" stroke-width="1.4" stroke-linejoin="round"/>
<path d="M137 75.4H197V89.6H137V75.4Z" fill="#D9BE94" stroke="#B08F5E" stroke-width="1.4" stroke-linejoin="round"/>
<path d="M198 75.4H258V89.6H198V75.4Z" fill="#D9BE94" stroke="#B08F5E" stroke-width="1.4" stroke-linejoin="round"/>
<path d="M259 75.4H319V89.6H259V75.4Z" fill="#D9BE94" stroke="#B08F5E" stroke-width="1.4" stroke-linejoin="round"/>
<path d="M320 75.4H375V89.6H320V75.4Z" fill="#D9BE94" stroke="#B08F5E" stroke-width="1.4" stroke-linejoin="round"/>
<path d="M15 90.4H45V104.6H15V90.4Z" fill="#D9BE94" stroke="#B08F5E" stroke-width="1.4" stroke-linejoin="round"/>
<path d="M46 90.4H106V104.6H46V90.4Z" fill="#D9BE94" stroke="#B08F5E" stroke-width="1.4" stroke-linejoin="round"/>
<path d="M107 90.4H167V104.6H107V90.4Z" fill="#D9BE94" stroke="#B08F5E" stroke-width="1.4" stroke-linejoin="round"/>
<path d="M168 90.4H228V104.6H168V90.4Z" fill="#D9BE94" stroke="#B08F5E" stroke-width="1.4" stroke-linejoin="round"/>
<path d="M229 90.4H289V104.6H229V90.4Z" fill="#D9BE94" stroke="#B08F5E" stroke-width="1.4" stroke-linejoin="round"/>
<path d="M290 90.4H350V104.6H290V90.4Z" fill="#D9BE94" stroke="#B08F5E" stroke-width="1.4" stroke-linejoin="round"/>
<path d="M351 90.4H375V104.6H351V90.4Z" fill="#D9BE94" stroke="#B08F5E" stroke-width="1.4" stroke-linejoin="round"/>
<path d="M15 15H375V255H255V105H135V255H15V15Z" stroke="#2B2317" stroke-width="4" stroke-linejoin="round"/>
</svg>
