<svg width="20" height="20" viewBox="0 0 20 20" fill="none" xmlns="http://www.w3.org/2000/svg">
<path d="M7.16927 7.33313H3.27344C2.99165 7.33313 2.72139 7.43849 2.52214 7.62603C2.32288 7.81356 2.21094 8.06792 2.21094 8.33313V10.6665C2.21094 10.9317 2.32288 11.186 2.52214 11.3736C2.72139 11.5611 2.99165 11.6665 3.27344 11.6665H7.16927V7.33313ZM15.9136 3.8398C15.7659 3.74568 15.5953 3.68809 15.4177 3.67237C15.24 3.65664 15.061 3.68327 14.8972 3.7498L7.8776 7.12313V11.8798L14.8936 15.2731C15.2329 15.3712 15.5997 15.3389 15.9136 15.1831C16.0567 15.0913 16.1737 14.968 16.2546 14.824C16.3355 14.6799 16.3777 14.5194 16.3776 14.3565V4.66647C16.3777 4.50353 16.3355 4.34304 16.2546 4.19896C16.1737 4.05489 16.0567 3.93159 15.9136 3.8398ZM7.36406 12.3331H4.5024L5.49406 15.6065C5.55732 15.816 5.69151 16.0003 5.87626 16.1315C6.061 16.2626 6.28619 16.3334 6.5176 16.3331H7.16927C7.33105 16.3265 7.48928 16.2863 7.63261 16.2154C7.77594 16.1444 7.90082 16.0445 7.9983 15.9228C8.09579 15.8011 8.16347 15.6607 8.19648 15.5115C8.2295 15.3622 8.22703 15.208 8.18927 15.0598L7.36406 12.3331ZM17.0859 8.39313V10.6065C17.2926 10.5377 17.4716 10.4104 17.5984 10.2422C17.7253 10.0739 17.7937 9.87278 17.7943 9.66647V9.33313C17.7937 9.12682 17.7253 8.92573 17.5984 8.75745C17.4716 8.58916 17.2926 8.4619 17.0859 8.39313Z" fill="#F7F7F9" fill-opacity="0.6"/>
</svg>
