<svg width="20" height="20" viewBox="0 0 20 20" fill="none" xmlns="http://www.w3.org/2000/svg">
<g clip-path="url(#clip0_6399_7558)">
<path d="M10.8091 2.08398C11.6997 2.08636 12.1517 2.09111 12.542 2.10219L12.6956 2.10773C12.8729 2.11407 13.0479 2.12198 13.2593 2.13148C14.1016 2.17107 14.6764 2.30407 15.1807 2.49961C15.7032 2.70069 16.1433 2.97303 16.5835 3.4124C16.9862 3.80802 17.2977 4.28678 17.4963 4.81523C17.6918 5.31953 17.8248 5.89428 17.8644 6.7374C17.8739 6.94798 17.8818 7.12294 17.8882 7.30107L17.8929 7.45465C17.9048 7.84415 17.9095 8.29619 17.9111 9.18682L17.9119 9.7774V10.8145C17.9138 11.3919 17.9078 11.9694 17.8937 12.5467L17.8889 12.7002C17.8826 12.8784 17.8747 13.0533 17.8652 13.2639C17.8256 14.107 17.691 14.681 17.4963 15.1861C17.2977 15.7145 16.9862 16.1933 16.5835 16.5889C16.1879 16.9916 15.7091 17.3031 15.1807 17.5017C14.6764 17.6972 14.1016 17.8302 13.2593 17.8698L12.6956 17.8936L12.542 17.8983C12.1517 17.9094 11.6997 17.9149 10.8091 17.9165L10.2185 17.9173H9.1822C8.60449 17.9194 8.02678 17.9133 7.44924 17.8991L7.29566 17.8944C7.10772 17.8872 6.91983 17.8791 6.73199 17.8698C5.88966 17.8302 5.31491 17.6972 4.80982 17.5017C4.28165 17.303 3.80318 16.9915 3.40778 16.5889C3.00478 16.1934 2.69299 15.7146 2.4942 15.1861C2.29866 14.6818 2.16566 14.107 2.12608 13.2639L2.10233 12.7002L2.09837 12.5467C2.08377 11.9694 2.07718 11.3919 2.07858 10.8145V9.18682C2.07638 8.60938 2.08219 8.03193 2.09599 7.45465L2.10153 7.30107C2.10787 7.12294 2.11578 6.94798 2.12528 6.7374C2.16487 5.89428 2.29787 5.32032 2.49341 4.81523C2.69267 4.28656 3.005 3.80779 3.40858 3.4124C3.80374 3.00988 4.28193 2.69838 4.80982 2.49961C5.31491 2.30407 5.88887 2.17107 6.73199 2.13148C6.94257 2.12198 7.11832 2.11407 7.29566 2.10773L7.44924 2.10298C8.02652 2.08892 8.60396 2.08285 9.18141 2.08478L10.8091 2.08398ZM9.99524 6.04232C8.94543 6.04232 7.93861 6.45936 7.19628 7.20169C6.45395 7.94402 6.03691 8.95084 6.03691 10.0007C6.03691 11.0505 6.45395 12.0573 7.19628 12.7996C7.93861 13.5419 8.94543 13.959 9.99524 13.959C11.0451 13.959 12.0519 13.5419 12.7942 12.7996C13.5365 12.0573 13.9536 11.0505 13.9536 10.0007C13.9536 8.95084 13.5365 7.94402 12.7942 7.20169C12.0519 6.45936 11.0451 6.04232 9.99524 6.04232ZM9.99524 7.62565C10.3071 7.6256 10.616 7.68698 10.9041 7.80629C11.1923 7.92559 11.4542 8.10049 11.6747 8.32099C11.8953 8.5415 12.0703 8.80328 12.1897 9.09141C12.3091 9.37954 12.3706 9.68837 12.3706 10.0003C12.3707 10.3121 12.3093 10.621 12.19 10.9092C12.0707 11.1973 11.8958 11.4592 11.6753 11.6798C11.4548 11.9003 11.193 12.0753 10.9049 12.1947C10.6167 12.3141 10.3079 12.3756 9.99603 12.3757C9.36614 12.3757 8.76205 12.1254 8.31665 11.68C7.87126 11.2346 7.62103 10.6305 7.62103 10.0007C7.62103 9.37076 7.87126 8.76667 8.31665 8.32127C8.76205 7.87587 9.36614 7.62565 9.99603 7.62565M14.1523 4.85482C13.8898 4.85482 13.6381 4.95908 13.4525 5.14466C13.267 5.33024 13.1627 5.58195 13.1627 5.8444C13.1627 6.10686 13.267 6.35856 13.4525 6.54414C13.6381 6.72973 13.8898 6.83398 14.1523 6.83398C14.4147 6.83398 14.6664 6.72973 14.852 6.54414C15.0376 6.35856 15.1419 6.10686 15.1419 5.8444C15.1419 5.58195 15.0376 5.33024 14.852 5.14466C14.6664 4.95908 14.4147 4.85482 14.1523 4.85482Z" fill="#F7F7F9" fill-opacity="0.6"/>
</g>
<defs>
<clipPath id="clip0_6399_7558">
<rect width="20" height="20" fill="white"/>
</clipPath>
</defs>
</svg>
