<svg width="20" height="20" viewBox="0 0 20 20" fill="none" xmlns="http://www.w3.org/2000/svg">
<g clip-path="url(#clip0_6399_7546)">
<path d="M15.5417 2.875C15.9616 2.875 16.3643 3.04181 16.6613 3.33875C16.9582 3.63568 17.125 4.03841 17.125 4.45833V15.5417C17.125 15.9616 16.9582 16.3643 16.6613 16.6613C16.3643 16.9582 15.9616 17.125 15.5417 17.125H4.45833C4.03841 17.125 3.63568 16.9582 3.33875 16.6613C3.04181 16.3643 2.875 15.9616 2.875 15.5417V4.45833C2.875 4.03841 3.04181 3.63568 3.33875 3.33875C3.63568 3.04181 4.03841 2.875 4.45833 2.875H15.5417ZM15.1458 15.1458V10.95C15.1458 10.2655 14.8739 9.60908 14.3899 9.12508C13.9059 8.64108 13.2495 8.36917 12.565 8.36917C11.8921 8.36917 11.1083 8.78083 10.7283 9.39833V8.51958H8.51958V15.1458H10.7283V11.2429C10.7283 10.6333 11.2192 10.1346 11.8288 10.1346C12.1227 10.1346 12.4046 10.2514 12.6125 10.4592C12.8203 10.6671 12.9371 10.949 12.9371 11.2429V15.1458H15.1458ZM5.94667 7.27667C6.2994 7.27667 6.6377 7.13654 6.88712 6.88712C7.13654 6.6377 7.27667 6.2994 7.27667 5.94667C7.27667 5.21042 6.68292 4.60875 5.94667 4.60875C5.59183 4.60875 5.25152 4.74971 5.00062 5.00062C4.74971 5.25152 4.60875 5.59183 4.60875 5.94667C4.60875 6.68292 5.21042 7.27667 5.94667 7.27667ZM7.04708 15.1458V8.51958H4.85417V15.1458H7.04708Z" fill="#F7F7F9" fill-opacity="0.6"/>
</g>
<defs>
<clipPath id="clip0_6399_7546">
<rect width="20" height="20" fill="white"/>
</clipPath>
</defs>
</svg>
