<svg width="20" height="20" viewBox="0 0 20 20" fill="none" xmlns="http://www.w3.org/2000/svg">
<path fill-rule="evenodd" clip-rule="evenodd" d="M14.4463 4.31032C14.6307 4.2327 14.8325 4.20593 15.0308 4.23279C15.2291 4.25966 15.4166 4.33918 15.5737 4.46308C15.7308 4.58697 15.8519 4.75072 15.9242 4.93727C15.9966 5.12382 16.0176 5.32636 15.9852 5.5238L14.2925 15.7906C14.1283 16.781 13.0417 17.3489 12.1334 16.8556C11.3737 16.4429 10.2453 15.8071 9.23027 15.1436C8.72277 14.8115 7.1682 13.748 7.35926 12.9913C7.52345 12.3442 10.1355 9.91279 11.6282 8.46721C12.214 7.89927 11.9469 7.57165 11.255 8.09406C9.537 9.39112 6.77863 11.3636 5.86663 11.9188C5.0621 12.4084 4.64267 12.492 4.14115 12.4084C3.22617 12.2562 2.37761 12.0203 1.68503 11.733C0.749155 11.3449 0.79468 10.0583 1.68429 9.68367L14.4463 4.31032Z" fill="#F7F7F9" fill-opacity="0.6"/>
</svg>
