<svg width="20" height="20" viewBox="0 0 20 20" fill="none" xmlns="http://www.w3.org/2000/svg">
<path fill-rule="evenodd" clip-rule="evenodd" d="M13.5581 2.41223C11.2147 1.86259 8.78456 1.86259 6.44119 2.41223L6.18869 2.47085C5.52935 2.62507 4.92373 2.96828 4.43927 3.46226C3.95481 3.95624 3.61052 4.58162 3.44473 5.26875C2.85176 7.7249 2.85176 10.2974 3.44473 12.7536C3.60286 13.4089 3.92349 14.0086 4.37404 14.4918C4.82458 14.9749 5.389 15.3244 6.00993 15.5046L6.35628 17.6741C6.36733 17.743 6.39579 17.8075 6.43868 17.861C6.48157 17.9144 6.53733 17.9548 6.60015 17.9779C6.66298 18.0011 6.73056 18.0061 6.79587 17.9926C6.86119 17.979 6.92184 17.9473 6.97151 17.9008L9.00565 15.9915C10.5326 16.0882 12.065 15.9601 13.5581 15.6109L13.8113 15.5522C14.4707 15.398 15.0763 15.0548 15.5607 14.5608C16.0452 14.0668 16.3895 13.4415 16.5553 12.7543C17.1482 10.2982 17.1482 7.72568 16.5553 5.26954C16.3894 4.5823 16.045 3.95686 15.5604 3.46286C15.0758 2.96887 14.47 2.62572 13.8106 2.47163L13.5581 2.41223ZM7.06983 5.20545C6.9314 5.18418 6.7902 5.21342 6.66985 5.28829H6.65943C6.38011 5.46023 6.12836 5.67672 5.91385 5.9315C5.73509 6.14799 5.63826 6.36682 5.61293 6.57783C5.59804 6.70288 5.60847 6.82949 5.64347 6.94906L5.65688 6.95688C5.85798 7.57664 6.12017 8.17295 6.44044 8.7341C6.8536 9.52215 7.36179 10.2511 7.95245 10.9029L7.97033 10.9294L7.99863 10.9513L8.01577 10.9724L8.03662 10.9912C8.66003 11.6128 9.35634 12.1485 10.1087 12.5855C10.969 13.0771 11.4912 13.3092 11.8047 13.4061V13.4108C11.8963 13.4405 11.9798 13.4538 12.0639 13.4538C12.3311 13.4337 12.5841 13.3197 12.7819 13.1303C13.024 12.9052 13.2288 12.6402 13.3882 12.3456V12.3401C13.538 12.0431 13.4873 11.7633 13.2713 11.5734C12.8378 11.1752 12.3686 10.8218 11.8703 10.5184C11.5366 10.3284 11.1977 10.4433 11.0606 10.6356L10.7679 11.0232C10.6175 11.2155 10.3449 11.1889 10.3449 11.1889L10.3374 11.1936C8.30327 10.6489 7.76029 8.48791 7.76029 8.48791C7.76029 8.48791 7.73496 8.19405 7.92341 8.044L8.28986 7.73451C8.46564 7.58445 8.5878 7.22964 8.39935 6.87951C8.11079 6.35699 7.7748 5.86494 7.39606 5.41021C7.31322 5.30344 7.1972 5.23067 7.06834 5.20467M10.5065 4.26604C10.4077 4.26604 10.313 4.30721 10.2431 4.38049C10.1733 4.45378 10.1341 4.55317 10.1341 4.65681C10.1341 4.76045 10.1733 4.85984 10.2431 4.93313C10.313 5.00641 10.4077 5.04758 10.5065 5.04758C11.4487 5.04758 12.2308 5.37035 12.8497 5.98933C13.1678 6.32774 13.4158 6.72867 13.5782 7.16789C13.7413 7.6079 13.8158 8.0776 13.7964 8.54809C13.7944 8.59941 13.802 8.65065 13.8188 8.69888C13.8356 8.74712 13.8613 8.7914 13.8944 8.82921C13.9613 8.90558 14.0544 8.95092 14.1532 8.95527C14.252 8.95963 14.3483 8.92263 14.4211 8.85242C14.4939 8.78222 14.5371 8.68455 14.5412 8.58092C14.5635 8.00223 14.4719 7.42494 14.2724 6.88498C14.0719 6.34226 13.7665 5.84894 13.3756 5.436L13.3681 5.42819C12.6002 4.65837 11.6282 4.26604 10.5065 4.26604ZM10.4812 5.55089C10.3824 5.55089 10.2877 5.59206 10.2178 5.66534C10.148 5.73863 10.1087 5.83802 10.1087 5.94166C10.1087 6.0453 10.148 6.14469 10.2178 6.21798C10.2877 6.29126 10.3824 6.33243 10.4812 6.33243H10.4938C11.1731 6.38323 11.6677 6.62082 12.014 7.0108C12.3693 7.41252 12.5533 7.91192 12.5391 8.52933C12.5369 8.63297 12.5739 8.73331 12.6422 8.80828C12.7104 8.88325 12.8042 8.92671 12.903 8.92909C13.0018 8.93148 13.0974 8.89259 13.1688 8.82099C13.2403 8.74939 13.2817 8.65095 13.284 8.54731C13.3018 7.73685 13.0531 7.03738 12.56 6.47936V6.4778C12.0557 5.9104 11.3638 5.61029 10.5311 5.55167L10.5184 5.55011L10.4812 5.55089ZM10.467 6.85997C10.4172 6.85535 10.367 6.86132 10.3194 6.87752C10.2718 6.89372 10.2278 6.91982 10.19 6.95425C10.1522 6.98868 10.1215 7.03075 10.0995 7.07794C10.0776 7.12512 10.065 7.17646 10.0624 7.22889C10.0598 7.28132 10.0673 7.33376 10.0844 7.38308C10.1015 7.43241 10.128 7.4776 10.1621 7.51596C10.1963 7.55433 10.2374 7.58508 10.2832 7.60638C10.3289 7.62768 10.3783 7.6391 10.4283 7.63994C10.7396 7.65714 10.9385 7.75561 11.0636 7.88769C11.1895 8.02055 11.2833 8.23391 11.3005 8.56763C11.3014 8.62007 11.3124 8.67178 11.3328 8.71967C11.3531 8.76756 11.3825 8.81066 11.4191 8.8464C11.4557 8.88213 11.4988 8.90977 11.5457 8.92767C11.5927 8.94557 11.6427 8.95336 11.6926 8.95058C11.7425 8.9478 11.7914 8.9345 11.8363 8.91148C11.8812 8.88846 11.9212 8.85619 11.954 8.81659C11.9868 8.77699 12.0116 8.73087 12.0271 8.68098C12.0425 8.63109 12.0482 8.57846 12.0438 8.52621C12.02 8.05728 11.88 7.64307 11.5932 7.33827C11.3049 7.03347 10.9124 6.88498 10.467 6.85997Z" fill="#F7F7F9" fill-opacity="0.6"/>
</svg>
