<svg width="20" height="20" viewBox="0 0 20 20" fill="none" xmlns="http://www.w3.org/2000/svg">
<path d="M12.4276 2.08398H7.57071C3.13262 2.08398 2.07812 3.13928 2.07812 7.56786V12.4255C2.07812 16.862 3.1255 17.9173 7.562 17.9173H12.4197C16.8562 17.9173 17.9115 16.8699 17.9115 12.4334V7.57657C17.9115 3.13848 16.8641 2.08398 12.4276 2.08398ZM14.8604 13.3811H13.7053C13.2683 13.3811 13.1369 13.0272 12.3532 12.2434C11.6692 11.584 11.3802 11.5016 11.2068 11.5016C10.9677 11.5016 10.902 11.5674 10.902 11.8975V12.9361C10.902 13.2172 10.811 13.3819 10.0771 13.3819C9.36502 13.3335 8.67455 13.1169 8.06242 12.7499C7.45028 12.3828 6.93394 11.8758 6.55579 11.2705C5.65832 10.1546 5.03423 8.84438 4.73337 7.44436C4.73337 7.27098 4.79908 7.11423 5.12921 7.11423H6.28425C6.58112 7.11423 6.688 7.24644 6.80358 7.55123C7.36408 9.20107 8.32042 10.6356 8.70833 10.6356C8.85717 10.6356 8.92208 10.5699 8.92208 10.1986V8.49965C8.873 7.72461 8.46133 7.6589 8.46133 7.37865C8.46662 7.30473 8.50049 7.23578 8.55577 7.18642C8.61104 7.13705 8.68337 7.11116 8.75742 7.11423H10.5719C10.8197 7.11423 10.902 7.23773 10.902 7.53461V9.82728C10.902 10.0751 11.0089 10.1574 11.0833 10.1574C11.2322 10.1574 11.347 10.0751 11.6193 9.80273C12.2042 9.0894 12.6821 8.29466 13.038 7.44357C13.0746 7.34148 13.1434 7.25411 13.2341 7.19468C13.3249 7.13525 13.4325 7.10701 13.5407 7.11423H14.6957C15.0417 7.11423 15.1153 7.28761 15.0417 7.53461C14.6217 8.47546 14.102 9.36856 13.4916 10.1986C13.3673 10.3886 13.3174 10.4875 13.4916 10.71C13.6064 10.8834 14.0109 11.2214 14.2832 11.5428C14.6789 11.9377 15.0075 12.3944 15.2562 12.895C15.3552 13.2164 15.1897 13.3811 14.8604 13.3811Z" fill="#F7F7F9" fill-opacity="0.6"/>
</svg>
