<svg width="20" height="20" viewBox="0 0 20 20" fill="none" xmlns="http://www.w3.org/2000/svg">
<path fill-rule="evenodd" clip-rule="evenodd" d="M10 1.68945C5.5816 1.68945 2 5.10074 2 9.30903C2 10.7491 2.42 12.0978 3.1504 13.2468L2.4368 15.5571C2.39583 15.6897 2.39313 15.8304 2.429 15.9644C2.46486 16.0984 2.53796 16.2207 2.64061 16.3185C2.74326 16.4162 2.87167 16.4859 3.01233 16.52C3.153 16.5542 3.30073 16.5516 3.44 16.5126L5.8656 15.8329C7.11259 16.5514 8.54259 16.9304 10 16.9286C14.4184 16.9286 18 13.5173 18 9.30903C18 5.10074 14.4184 1.68945 10 1.68945ZM8.1904 11.0333C9.8088 12.574 11.3536 12.7775 11.8992 12.7965C12.7288 12.8255 13.5368 12.222 13.8512 11.5218C13.8906 11.4346 13.9048 11.339 13.8924 11.2448C13.88 11.1507 13.8415 11.0613 13.7808 10.9861C13.3424 10.4527 12.7496 10.0695 12.1704 9.68848C12.0495 9.60866 11.9009 9.5766 11.7557 9.59905C11.6105 9.6215 11.4801 9.69672 11.392 9.80887L10.912 10.5061C10.8866 10.5434 10.8473 10.5702 10.802 10.5809C10.7567 10.5917 10.7088 10.5856 10.668 10.564C10.3424 10.3864 9.868 10.0847 9.5272 9.76011C9.1864 9.43551 8.8888 9.00425 8.7216 8.71394C8.70137 8.67695 8.69566 8.63431 8.70548 8.59366C8.71531 8.55302 8.74003 8.51705 8.7752 8.49221L9.5144 7.96951C9.6202 7.88233 9.6885 7.76104 9.70621 7.62887C9.72393 7.49671 9.68981 7.36296 9.6104 7.25327C9.252 6.75342 8.8344 6.11795 8.2288 5.69659C8.15048 5.64299 8.05895 5.60957 7.96308 5.59955C7.86721 5.58954 7.77026 5.60328 7.6816 5.63944C6.9456 5.93965 6.3088 6.70923 6.3392 7.5009C6.3592 8.02056 6.5728 9.4919 8.1904 11.0333Z" fill="#F7F7F9" fill-opacity="0.6"/>
</svg>
